<?xml version="1.0" encoding="UTF-8" standalone="no"?>
<svg
   xmlns:dc="http://purl.org/dc/elements/1.1/"
   xmlns:cc="http://creativecommons.org/ns#"
   xmlns:rdf="http://www.w3.org/1999/02/22-rdf-syntax-ns#"
   xmlns:svg="http://www.w3.org/2000/svg"
   xmlns="http://www.w3.org/2000/svg"
   xmlns:sodipodi="http://sodipodi.sourceforge.net/DTD/sodipodi-0.dtd"
   xmlns:inkscape="http://www.inkscape.org/namespaces/inkscape"
   width="367.13998"
   height="367.13995"
   viewBox="0 0 367.13998 367.13995"
   version="1.1"
   id="svg2216"
   inkscape:version="1.0.1 (3bc2e813f5, 2020-09-07)"
   sodipodi:docname="traditional-circle-monogram-010101.svg">
  <defs
     id="defs2210" />
  <sodipodi:namedview
     id="base"
     pagecolor="#ffffff"
     bordercolor="#666666"
     borderopacity="1.0"
     inkscape:pageopacity="0.0"
     inkscape:pageshadow="2"
     inkscape:zoom="1.4"
     inkscape:cx="232.35472"
     inkscape:cy="176.35957"
     inkscape:document-units="px"
     inkscape:current-layer="layer1"
     showgrid="false"
     units="px"
     inkscape:window-width="1366"
     inkscape:window-height="705"
     inkscape:window-x="-8"
     inkscape:window-y="-8"
     inkscape:window-maximized="1"
     fit-margin-top="10"
     fit-margin-left="10"
     fit-margin-bottom="10"
     fit-margin-right="10"
     inkscape:showpageshadow="false"
     scale-x="1"
     inkscape:document-rotation="0" />
  <metadata
     id="metadata2213">
    <rdf:RDF>
      <cc:Work
         rdf:about="">
        <dc:format>image/svg+xml</dc:format>
        <dc:type
           rdf:resource="http://purl.org/dc/dcmitype/StillImage" />
        <dc:title />
      </cc:Work>
    </rdf:RDF>
  </metadata>
  <g
     inkscape:label="Layer 1"
     inkscape:groupmode="layer"
     id="layer1"
     transform="translate(33.179823,32.465521)">

<g
       aria-label="j"
       style="font-style:normal;font-variant:normal;font-weight:normal;font-stretch:normal;font-size:5.33333px;line-height:1.25;font-family:'Open Sans';-inkscape-font-specification:'Open Sans, Normal';font-variant-ligatures:normal;font-variant-caps:normal;font-variant-numeric:normal;font-feature-settings:normal;text-align:start;letter-spacing:0px;word-spacing:0px;writing-mode:lr-tb;text-anchor:start;fill:#0000ff;fill-opacity:1;stroke:none"
       id="text824"
       transform="translate(251.13415,-149.09144)">
      <path
         d="m -113.79152,160.32002 c -14.77477,2.38895 -28.21349,3.49193 -32.16315,8.28794 1.78741,78.59737 1.5691,136.80885 1.2968,220.06351 -39.84091,-12.07282 -43.77828,-28.60948 -59.456,-56.86933 -9.02778,-1.69271 -22.50455,-2.19779 -32.09657,-0.50508 16.02059,60.15097 65.42379,102.8452 121.17497,105.58268 1.34104,-71.07955 2.80082,-231.70293 1.24395,-276.55972 z"
         style="font-style:normal;font-variant:normal;font-weight:normal;font-stretch:normal;font-size:433.333px;font-family:'SunCatcherStudioFont left';-inkscape-font-specification:'SunCatcherStudioFont left';fill:#010101;fill-opacity:1"
         id="path825"
         inkscape:connector-curvature="0"
         sodipodi:nodetypes="ccccccc" />
    </g>



<g
       aria-label="r"
       style="font-style:normal;font-variant:normal;font-weight:normal;font-stretch:normal;font-size:5.33333px;line-height:1.25;font-family:'Open Sans';-inkscape-font-specification:'Open Sans, Normal';font-variant-ligatures:normal;font-variant-caps:normal;font-variant-numeric:normal;font-feature-settings:normal;text-align:start;letter-spacing:0px;word-spacing:0px;writing-mode:lr-tb;text-anchor:start;fill:#010101;fill-opacity:1;stroke:none"
       id="text828"
       transform="translate(250.99077,-149.08022)">
      <path
         d="m -7.0710995,283.41861 c -12.6953135,-0.42318 -49.2635485,-0.42318 -48.2761355,0 -1.551649,-20.59462 -2.056725,-61.51856 -0.505076,-82.11318 17.321982,7.55902 45.458768,34.42644 52.5898053,48.4706 5.5013023,13.82378 4.231771,25.03797 -3.8085938,33.64258 z M 21.704943,236.02277 C 4.4957411,198.92424 -35.352576,167.18932 -87.204945,160.22628 c -1.987679,56.2322 0.483297,95.85205 0.331017,139.27306 -0.141059,56.00043 -0.220579,103.67234 0.297154,138.37286 11.500807,-1.52467 23.235678,-3.23846 33.061756,-9.24851 0.141059,-6.2066 -2.537512,-33.83898 -2.678571,-62.89714 -0.141059,-21.72309 0.141059,-39.07335 0.846354,-52.05078 6.770834,-1.69271 39.075501,-0.43002 46.3445702,0 6.3476564,6.20659 10.8888138,13.75325 8.06763315,22.63997 -0.28211805,0.7053 -1.83376735,4.65495 -4.65494805,11.84896 -2.1158855,4.93707 -3.3854167,9.23937 -3.8085938,12.9069 -0.7052955,4.79601 -0.7052955,11.63737 0,20.52409 0.5642361,8.88672 0.9430433,17.00556 0.3788072,22.08369 C 10.919768,388.51644 32.070518,351.57163 33.117043,330.42537 32.834925,326.8989 27.91154,320.09395 23.397651,313.041 c -4.37283,-6.62977 -6.488715,-11.7079 -6.347656,-15.23437 0,-3.80859 2.256944,-9.02778 6.770833,-15.65756 4.796007,-6.91189 9.120784,-11.84895 9.402902,-14.81119 0.564236,-5.78342 -4.465836,-16.22179 -11.518787,-31.31511 z"
         style="font-style:normal;font-variant:normal;font-weight:normal;font-stretch:normal;font-size:433.333px;font-family:'SunCatcherStudioFont right';-inkscape-font-specification:'SunCatcherStudioFont right';fill:#010101;fill-opacity:1"
         id="path822"
         inkscape:connector-curvature="0"
         sodipodi:nodetypes="cccccccccccccccccccccccc" />
    </g>

    


    <path
       style="fill:#010101;fill-opacity:1;fill-rule:evenodd;stroke-width:1.06113"
       d="M 150.39016,-22.465521 A 173.57001,173.57001 0 0 0 -23.179823,151.10445 173.57001,173.57001 0 0 0 150.39016,324.67444 a 173.57001,173.57001 0 0 0 173.57,-173.56999 173.57001,173.57001 0 0 0 -173.57,-173.569971 z m 0,10.84808 A 162.72188,162.72188 0 0 1 313.11203,151.10445 162.72188,162.72188 0 0 1 150.39016,313.82632 162.72188,162.72188 0 0 1 -12.331693,151.10445 162.72188,162.72188 0 0 1 150.39016,-11.617441 Z"
       id="path12"
       inkscape:connector-curvature="0" />
  </g>
</svg>
